<?xml version="1.0" encoding="utf-8"?>
<!-- Generator: Adobe Illustrator 24.0.1, SVG Export Plug-In . SVG Version: 6.00 Build 0)  -->
<svg version="1.1" id="Layer_1" xmlns="http://www.w3.org/2000/svg" xmlns:xlink="http://www.w3.org/1999/xlink" x="0px" y="0px"
	 viewBox="0 0 416 416" style="enable-background:new 0 0 416 416;" xml:space="preserve">
<style type="text/css">
	.st0{fill:#FFFFFF;stroke:#000000;stroke-width:16;stroke-miterlimit:10;}
	.st1{stroke:#000000;stroke-width:12;stroke-miterlimit:10;}
	.st2{fill:#FFFFFF;stroke:#000000;stroke-width:16;stroke-linecap:round;stroke-miterlimit:10;}
	.st3{fill:#FFFFFF;}
	.st4{font-family:'SFProText-Bold';}
	.st5{font-size:48px;}
</style>
<path class="st0" d="M308.2,408.12h-200c-55.23,0-100-44.77-100-100v-200c0-55.23,44.77-100,100-100h200c55.23,0,100,44.77,100,100
	v200C408.2,363.35,363.43,408.12,308.2,408.12z"/>
<circle class="st1" cx="114.2" cy="175.12" r="49"/>
<circle class="st1" cx="302.2" cy="175.12" r="49"/>
<path class="st2" d="M118.2,333.12c51.53-46.84,112.49-61.98,151-39c8.03,4.79,18.85,13.49,28,30"/>
<text transform="matrix(1 0 0 1 111.7607 175.1608)" class="st3 st4 st5">$</text>
<text transform="matrix(1 0 0 1 302.3386 174.7061)" class="st3 st4 st5">$</text>
</svg>
